<?xml version="1.0" ?><svg xmlns="http://www.w3.org/2000/svg" id="Layer_2" viewBox="0 0 32 32"><defs><style>.cls-1{fill:none;}.cls-1,.cls-2{stroke-width:0px;}</style></defs><g id="icons"><g id="Organization"><g id="File"><path class="cls-2" d="m28,24v4H4v-4h-2v4h0c0,1.1.89,2,1.99,2h24c1.1,0,2-.9,2-2h0v-4h-2Z"/><g id="_Transparent_Rectangle_"><rect class="cls-1" width="32" height="32"/></g><polygon class="cls-2" points="27.6 14.6 24 18.2 24 4 22 4 22 18.2 18.4 14.6 17 16 23 22 29 16 27.6 14.6"/><polygon class="cls-2" points="9 4 3 10 4.4 11.4 8 7.8 8 22 10 22 10 7.8 13.6 11.4 15 10 9 4"/></g></g></g></svg>